<svg xmlns="http://www.w3.org/2000/svg" viewBox="0 0 100 100">
  <rect width="100" height="100" rx="12" fill="#1a1a2e"/>
  <!-- Scattered binary -->
  <text font-family="monospace" font-size="7" fill="#334" opacity="0.5">
    <tspan x="5" y="12">01101</tspan>
    <tspan x="60" y="20">10010</tspan>
    <tspan x="10" y="88">11001</tspan>
    <tspan x="65" y="95">01010</tspan>
    <tspan x="2" y="50">10</tspan>
    <tspan x="85" y="60">01</tspan>
  </text>
  <!-- Ghost body -->
  <path d="M30 65 L30 40 Q30 18 50 18 Q70 18 70 40 L70 65 L63 55 L56 65 L50 55 L44 65 L37 55 Z" fill="white" opacity="0.92"/>
  <!-- Ghost eyes -->
  <circle cx="42" cy="38" r="5" fill="#1a1a2e"/>
  <circle cx="58" cy="38" r="5" fill="#1a1a2e"/>
  <circle cx="43" cy="37" r="2" fill="#4fc3f7"/>
  <circle cx="59" cy="37" r="2" fill="#4fc3f7"/>
  <!-- Ghost mouth -->
  <ellipse cx="50" cy="50" rx="4" ry="3" fill="#1a1a2e"/>
  <!-- Glow effect -->
  <ellipse cx="50" cy="42" rx="24" ry="28" fill="white" opacity="0.05"/>
  <text x="50" y="82" font-family="monospace" font-size="7" fill="#4fc3f7" text-anchor="middle" opacity="0.7">01001</text>
</svg>