<svg xmlns="http://www.w3.org/2000/svg" viewBox="0 0 100 100">
  <rect width="100" height="100" rx="12" fill="#2d5a27"/>
  <line x1="38" y1="12" x2="35" y2="25" stroke="#333" stroke-width="2"/>
  <line x1="62" y1="12" x2="65" y2="25" stroke="#333" stroke-width="2"/>
  <circle cx="35" cy="10" r="4" fill="#ff6600"/>
  <circle cx="65" cy="10" r="4" fill="#ff6600"/>
  <ellipse cx="50" cy="52" rx="30" ry="28" fill="#ffd700"/>
  <circle cx="40" cy="42" r="7" fill="white"/>
  <circle cx="60" cy="42" r="7" fill="white"/>
  <circle cx="41" cy="43" r="4" fill="#1a1a2e"/>
  <circle cx="61" cy="43" r="4" fill="#1a1a2e"/>
  <path d="M40 60 Q50 68 60 60" stroke="#333" stroke-width="2.5" fill="none" stroke-linecap="round"/>
  <line x1="18" y1="40" x2="8" y2="32" stroke="#ffd700" stroke-width="3" stroke-linecap="round"/>
  <line x1="18" y1="52" x2="6" y2="52" stroke="#ffd700" stroke-width="3" stroke-linecap="round"/>
  <line x1="18" y1="64" x2="8" y2="72" stroke="#ffd700" stroke-width="3" stroke-linecap="round"/>
  <line x1="82" y1="40" x2="92" y2="32" stroke="#ffd700" stroke-width="3" stroke-linecap="round"/>
  <line x1="82" y1="52" x2="94" y2="52" stroke="#ffd700" stroke-width="3" stroke-linecap="round"/>
  <line x1="82" y1="64" x2="92" y2="72" stroke="#ffd700" stroke-width="3" stroke-linecap="round"/>
  <text x="50" y="92" font-family="monospace" font-size="8" fill="#90ee90" text-anchor="middle">BUG!</text>
</svg>