<svg xmlns="http://www.w3.org/2000/svg" viewBox="0 0 100 100">
  <rect width="100" height="100" rx="12" fill="#7b2d8e"/>
  <polygon points="25,35 18,10 38,25" fill="#d4a0e0"/>
  <polygon points="75,35 82,10 62,25" fill="#d4a0e0"/>
  <polygon points="25,35 22,14 34,25" fill="#f0b0d0"/>
  <polygon points="75,35 78,14 66,25" fill="#f0b0d0"/>
  <circle cx="50" cy="50" r="28" fill="#d4a0e0"/>
  <ellipse cx="39" cy="44" rx="6" ry="7" fill="#fff"/>
  <ellipse cx="61" cy="44" rx="6" ry="7" fill="#fff"/>
  <ellipse cx="40" cy="45" rx="3.5" ry="5" fill="#2d1b4e"/>
  <ellipse cx="62" cy="45" rx="3.5" ry="5" fill="#2d1b4e"/>
  <ellipse cx="50" cy="55" rx="3" ry="2" fill="#f0b0d0"/>
  <line x1="12" y1="48" x2="28" y2="52" stroke="#d4a0e0" stroke-width="1.5"/>
  <line x1="12" y1="55" x2="28" y2="55" stroke="#d4a0e0" stroke-width="1.5"/>
  <line x1="72" y1="52" x2="88" y2="48" stroke="#d4a0e0" stroke-width="1.5"/>
  <line x1="72" y1="55" x2="88" y2="55" stroke="#d4a0e0" stroke-width="1.5"/>
  <path d="M44 58 Q50 63 56 58" stroke="#2d1b4e" stroke-width="1.5" fill="none"/>
  <text x="50" y="90" font-family="monospace" font-size="9" fill="#ffd1f0" text-anchor="middle">&lt;/cat&gt;</text>
</svg>