<svg xmlns="http://www.w3.org/2000/svg" viewBox="0 0 100 100">
  <rect width="100" height="100" rx="12" fill="#1a1a2e"/>
  <rect x="25" y="25" width="50" height="50" rx="4" fill="#2a3a4a" stroke="#4fc3f7" stroke-width="1.5"/>
  <rect x="32" y="32" width="36" height="36" rx="2" fill="#1a2a3a" stroke="#4fc3f7" stroke-width="1"/>
  <!-- Top pins -->
  <rect x="33" y="16" width="4" height="10" fill="#4fc3f7"/>
  <rect x="42" y="16" width="4" height="10" fill="#4fc3f7"/>
  <rect x="51" y="16" width="4" height="10" fill="#4fc3f7"/>
  <rect x="60" y="16" width="4" height="10" fill="#4fc3f7"/>
  <!-- Bottom pins -->
  <rect x="33" y="74" width="4" height="10" fill="#4fc3f7"/>
  <rect x="42" y="74" width="4" height="10" fill="#4fc3f7"/>
  <rect x="51" y="74" width="4" height="10" fill="#4fc3f7"/>
  <rect x="60" y="74" width="4" height="10" fill="#4fc3f7"/>
  <!-- Left pins -->
  <rect x="16" y="33" width="10" height="4" fill="#4fc3f7"/>
  <rect x="16" y="42" width="10" height="4" fill="#4fc3f7"/>
  <rect x="16" y="51" width="10" height="4" fill="#4fc3f7"/>
  <rect x="16" y="60" width="10" height="4" fill="#4fc3f7"/>
  <!-- Right pins -->
  <rect x="74" y="33" width="10" height="4" fill="#4fc3f7"/>
  <rect x="74" y="42" width="10" height="4" fill="#4fc3f7"/>
  <rect x="74" y="51" width="10" height="4" fill="#4fc3f7"/>
  <rect x="74" y="60" width="10" height="4" fill="#4fc3f7"/>
  <text x="50" y="53" font-family="monospace" font-weight="bold" font-size="12" fill="#4fc3f7" text-anchor="middle">CPU</text>
  <circle cx="37" cy="37" r="2" fill="#ff6b6b" opacity="0.8"/>
</svg>