<svg xmlns="http://www.w3.org/2000/svg" viewBox="0 0 100 100">
  <rect width="100" height="100" rx="12" fill="#0db7ed"/>
  <!-- Water waves -->
  <path d="M0 75 Q15 70 30 75 Q45 80 60 75 Q75 70 90 75 L100 75 L100 100 L0 100 Z" fill="#0a8abf" opacity="0.5"/>
  <path d="M0 82 Q15 77 30 82 Q45 87 60 82 Q75 77 90 82 L100 82 L100 100 L0 100 Z" fill="#087ba8" opacity="0.5"/>
  <!-- Whale body -->
  <ellipse cx="50" cy="55" rx="32" ry="18" fill="#2c3e6b"/>
  <!-- Whale head -->
  <ellipse cx="78" cy="52" rx="12" ry="10" fill="#2c3e6b"/>
  <!-- Eye -->
  <circle cx="82" cy="49" r="3" fill="white"/>
  <circle cx="83" cy="49" r="1.5" fill="#1a1a2e"/>
  <!-- Mouth -->
  <path d="M85 55 Q88 56 90 55" stroke="#1a1a2e" stroke-width="1" fill="none"/>
  <!-- Water spout -->
  <path d="M55 37 Q52 28 48 20" stroke="#b3e5fc" stroke-width="2" fill="none" stroke-linecap="round"/>
  <path d="M55 37 Q58 28 62 22" stroke="#b3e5fc" stroke-width="2" fill="none" stroke-linecap="round"/>
  <circle cx="47" cy="18" r="2" fill="#b3e5fc"/>
  <circle cx="63" cy="20" r="2" fill="#b3e5fc"/>
  <!-- Container blocks on back -->
  <rect x="28" y="40" width="10" height="8" rx="1" fill="#4fc3f7" stroke="#fff" stroke-width="0.5"/>
  <rect x="40" y="40" width="10" height="8" rx="1" fill="#81d4fa" stroke="#fff" stroke-width="0.5"/>
  <rect x="52" y="40" width="10" height="8" rx="1" fill="#4fc3f7" stroke="#fff" stroke-width="0.5"/>
  <rect x="34" y="31" width="10" height="8" rx="1" fill="#29b6f6" stroke="#fff" stroke-width="0.5"/>
  <rect x="46" y="31" width="10" height="8" rx="1" fill="#4fc3f7" stroke="#fff" stroke-width="0.5"/>
</svg>