<svg xmlns="http://www.w3.org/2000/svg" viewBox="0 0 100 100">
  <rect width="100" height="100" rx="12" fill="#f9a825"/>
  <!-- Head -->
  <circle cx="50" cy="35" r="22" fill="#ffcc80"/>
  <!-- Headband -->
  <rect x="28" y="26" width="44" height="6" rx="2" fill="#e53935"/>
  <path d="M72 26 L78 22 L76 32 Z" fill="#e53935"/>
  <!-- Eyes (determined) -->
  <rect x="37" y="34" width="8" height="3" rx="1" fill="#1a1a2e"/>
  <rect x="55" y="34" width="8" height="3" rx="1" fill="#1a1a2e"/>
  <!-- Eyebrows (fierce) -->
  <line x1="36" y1="30" x2="46" y2="32" stroke="#1a1a2e" stroke-width="2" stroke-linecap="round"/>
  <line x1="64" y1="30" x2="54" y2="32" stroke="#1a1a2e" stroke-width="2" stroke-linecap="round"/>
  <!-- Mouth -->
  <rect x="44" y="42" width="12" height="4" rx="2" fill="#1a1a2e"/>
  <!-- Keyboard -->
  <rect x="10" y="64" width="80" height="28" rx="4" fill="#424242"/>
  <rect x="14" y="68" width="8" height="6" rx="1" fill="#666"/>
  <rect x="24" y="68" width="8" height="6" rx="1" fill="#666"/>
  <rect x="34" y="68" width="8" height="6" rx="1" fill="#666"/>
  <rect x="44" y="68" width="8" height="6" rx="1" fill="#666"/>
  <rect x="54" y="68" width="8" height="6" rx="1" fill="#666"/>
  <rect x="64" y="68" width="8" height="6" rx="1" fill="#666"/>
  <rect x="74" y="68" width="12" height="6" rx="1" fill="#ff5722"/>
  <rect x="14" y="77" width="8" height="6" rx="1" fill="#666"/>
  <rect x="24" y="77" width="8" height="6" rx="1" fill="#666"/>
  <rect x="34" y="77" width="22" height="6" rx="1" fill="#666"/>
  <rect x="58" y="77" width="8" height="6" rx="1" fill="#666"/>
  <rect x="68" y="77" width="8" height="6" rx="1" fill="#666"/>
  <rect x="78" y="77" width="8" height="6" rx="1" fill="#666"/>
  <!-- Hands on keyboard -->
  <ellipse cx="35" cy="66" rx="6" ry="4" fill="#ffcc80"/>
  <ellipse cx="65" cy="66" rx="6" ry="4" fill="#ffcc80"/>
</svg>