<svg xmlns="http://www.w3.org/2000/svg" viewBox="0 0 100 100">
  <rect width="100" height="100" rx="12" fill="#263238"/>
  <!-- Body -->
  <ellipse cx="50" cy="58" rx="28" ry="30" fill="#795548"/>
  <!-- Belly -->
  <ellipse cx="50" cy="65" rx="16" ry="18" fill="#a1887f"/>
  <!-- Ear tufts -->
  <polygon points="28,22 35,38 22,38" fill="#795548"/>
  <polygon points="72,22 65,38 78,38" fill="#795548"/>
  <!-- Head -->
  <ellipse cx="50" cy="38" rx="24" ry="18" fill="#8d6e63"/>
  <!-- Big eyes (owl style) -->
  <circle cx="40" cy="36" r="10" fill="white" stroke="#5d4037" stroke-width="1.5"/>
  <circle cx="60" cy="36" r="10" fill="white" stroke="#5d4037" stroke-width="1.5"/>
  <circle cx="41" cy="37" r="6" fill="#ffd600"/>
  <circle cx="61" cy="37" r="6" fill="#ffd600"/>
  <circle cx="41" cy="37" r="3" fill="#1a1a2e"/>
  <circle cx="61" cy="37" r="3" fill="#1a1a2e"/>
  <circle cx="42" cy="36" r="1.5" fill="white"/>
  <circle cx="62" cy="36" r="1.5" fill="white"/>
  <!-- Beak -->
  <polygon points="50,42 46,48 54,48" fill="#ff8f00"/>
  <!-- Feet -->
  <path d="M38 86 L32 92 M38 86 L38 92 M38 86 L44 92" stroke="#ff8f00" stroke-width="2" stroke-linecap="round"/>
  <path d="M62 86 L56 92 M62 86 L62 92 M62 86 L68 92" stroke="#ff8f00" stroke-width="2" stroke-linecap="round"/>
  <!-- Recursion text -->
  <text x="50" y="96" font-family="monospace" font-size="6" fill="#4fc3f7" text-anchor="middle">f(f(f(...)))</text>
</svg>