<svg xmlns="http://www.w3.org/2000/svg" viewBox="0 0 100 100">
  <rect width="100" height="100" rx="12" fill="#e0e5ec"/>
  <line x1="50" y1="5" x2="50" y2="18" stroke="#666" stroke-width="3"/>
  <circle cx="50" cy="5" r="4" fill="#ff4444"/>
  <rect x="20" y="18" width="60" height="50" rx="10" fill="#b0b8c4" stroke="#8a929e" stroke-width="2"/>
  <rect x="30" y="30" width="16" height="12" rx="3" fill="#1a1a2e"/>
  <circle cx="38" cy="36" r="4" fill="#00e5ff"/>
  <rect x="54" y="30" width="16" height="12" rx="3" fill="#1a1a2e"/>
  <circle cx="62" cy="36" r="4" fill="#00e5ff"/>
  <rect x="35" y="50" width="30" height="6" rx="2" fill="#666"/>
  <rect x="38" y="51" width="4" height="4" fill="#e0e5ec"/>
  <rect x="45" y="51" width="4" height="4" fill="#e0e5ec"/>
  <rect x="52" y="51" width="4" height="4" fill="#e0e5ec"/>
  <rect x="59" y="51" width="4" height="4" fill="#e0e5ec"/>
  <rect x="10" y="32" width="8" height="20" rx="3" fill="#b0b8c4" stroke="#8a929e" stroke-width="1"/>
  <rect x="82" y="32" width="8" height="20" rx="3" fill="#b0b8c4" stroke="#8a929e" stroke-width="1"/>
  <rect x="28" y="72" width="18" height="18" rx="4" fill="#b0b8c4" stroke="#8a929e" stroke-width="1"/>
  <rect x="54" y="72" width="18" height="18" rx="4" fill="#b0b8c4" stroke="#8a929e" stroke-width="1"/>
</svg>